<svg width="1024" height="1024" viewBox="0 0 1024 1024" fill="none" xmlns="http://www.w3.org/2000/svg">
<g clip-path="url(#clip0_235_107)">
<circle cx="512" cy="512" r="496" fill="#3CB57F"/>
<path d="M630.174 210.058C680.919 159.315 763.199 159.313 813.941 210.058C864.686 260.801 864.687 343.081 813.941 393.825C796.5 411.263 775.327 422.696 752.997 428.145V595.854C775.327 601.303 796.499 612.736 813.941 630.174C864.685 680.918 864.687 763.199 813.941 813.941C763.199 864.687 680.918 864.685 630.174 813.941C586.977 770.735 580.578 704.678 610.946 654.685L369.284 413.022C357.82 419.986 345.535 425.05 332.851 428.145V595.854C355.188 601.303 376.378 612.729 393.825 630.174C444.564 680.915 444.559 763.198 393.825 813.941C343.081 864.687 260.801 864.686 210.058 813.941C159.313 763.199 159.315 680.919 210.058 630.174C227.509 612.727 248.689 601.269 271.032 595.824V428.145C248.691 422.698 227.507 411.27 210.058 393.825C159.314 343.081 159.314 260.801 210.058 210.058C260.801 159.314 343.081 159.314 393.825 210.058C437.02 253.262 443.386 319.292 413.022 369.284L654.685 610.946C666.162 603.974 678.478 598.918 691.178 595.824V428.145C668.831 422.698 647.628 411.278 630.174 393.825C579.436 343.084 579.442 260.802 630.174 210.058ZM350.086 673.912C323.485 647.312 280.367 647.312 253.766 673.912C227.169 700.517 227.167 743.636 253.766 770.233L258.927 774.912C285.68 796.738 325.145 795.17 350.086 770.233L354.765 765.072C376.595 738.319 375.029 698.857 350.086 673.912ZM770.233 673.912C743.634 647.313 700.516 647.312 673.912 673.912C647.312 700.516 647.313 743.634 673.912 770.233C700.517 796.831 743.636 796.833 770.233 770.233L774.912 765.072C796.737 738.321 795.171 698.856 770.233 673.912ZM350.086 253.766C323.484 227.169 280.366 227.166 253.766 253.766C227.166 280.366 227.169 323.484 253.766 350.086C280.367 376.688 323.485 376.688 350.086 350.086C376.688 323.485 376.688 280.367 350.086 253.766ZM770.233 253.766C743.636 227.167 700.517 227.169 673.912 253.766C647.312 280.367 647.312 323.485 673.912 350.086C700.516 376.688 743.634 376.687 770.233 350.086L774.912 344.925C795.281 319.952 795.284 283.898 774.912 258.927L770.233 253.766Z" fill="white"/>
</g>
<defs>
<clipPath id="clip0_235_107">
<rect width="992" height="992" fill="white" transform="translate(16 16)"/>
</clipPath>
</defs>
</svg>
