<svg width="256" height="256" viewBox="0 0 256 256" fill="none" xmlns="http://www.w3.org/2000/svg">
<g clip-path="url(#clip0_336_899)">
<circle cx="128" cy="128" r="120" fill="#3CB57F"/>
<path d="M153.373 63.1712C164.268 52.2765 181.934 52.276 192.829 63.1712C203.724 74.0661 203.724 91.7322 192.829 102.627C189.084 106.371 184.538 108.826 179.744 109.996V146.004C184.538 147.174 189.084 149.629 192.829 153.373C203.724 164.268 203.724 181.934 192.829 192.829C181.934 203.724 164.268 203.724 153.373 192.829C144.098 183.552 142.724 169.369 149.244 158.635L97.3581 106.749C94.8966 108.244 92.2591 109.331 89.5356 109.996V146.004C94.3315 147.174 98.8812 149.627 102.627 153.373C113.521 164.267 113.52 181.934 102.627 192.829C91.7322 203.724 74.0661 203.724 63.1712 192.829C52.276 181.934 52.2765 164.268 63.1712 153.373C66.9181 149.627 71.4655 147.167 76.2627 145.997V109.996C71.4661 108.826 66.9177 106.373 63.1712 102.627C52.2763 91.7321 52.2763 74.0661 63.1712 63.1712C74.0661 52.2763 91.7321 52.2763 102.627 63.1712C111.901 72.4474 113.268 86.6245 106.749 97.3581L158.635 149.244C161.1 147.747 163.744 146.662 166.471 145.997V109.996C161.672 108.826 157.12 106.374 153.373 102.627C142.479 91.7328 142.48 74.0662 153.373 63.1712ZM93.2362 162.764C87.5247 157.052 78.2671 157.052 72.5556 162.764C66.845 168.476 66.8447 177.734 72.5556 183.444L73.6638 184.449C79.4078 189.135 87.8812 188.798 93.2362 183.444L94.2407 182.336C98.9278 176.592 98.5916 168.119 93.2362 162.764ZM183.444 162.764C177.733 157.053 168.476 157.052 162.764 162.764C157.052 168.476 157.053 177.733 162.764 183.444C168.476 189.155 177.734 189.155 183.444 183.444L184.449 182.336C189.135 176.592 188.798 168.119 183.444 162.764ZM93.2362 72.5556C87.5246 66.8451 78.2667 66.8444 72.5556 72.5556C66.8444 78.2667 66.8451 87.5246 72.5556 93.2362C78.2671 98.9477 87.5247 98.9477 93.2362 93.2362C98.9477 87.5247 98.9477 78.2671 93.2362 72.5556ZM183.444 72.5556C177.734 66.8447 168.476 66.845 162.764 72.5556C157.052 78.2671 157.052 87.5247 162.764 93.2362C168.476 98.9478 177.733 98.9474 183.444 93.2362L184.449 92.128C188.822 86.7661 188.823 79.0253 184.449 73.6638L183.444 72.5556Z" fill="white"/>
</g>
<defs>
<clipPath id="clip0_336_899">
<rect width="240" height="240" fill="white" transform="translate(8 8)"/>
</clipPath>
</defs>
</svg>
